<svg width="50" height="51" viewBox="0 0 50 51" fill="none" xmlns="http://www.w3.org/2000/svg">
<path d="M27.0833 31.2269C27.0833 20.5165 35.1917 9.3123 47.9167 6.7998L49.9667 11.229C45.3521 12.9686 41.2937 19.0248 40.8417 23.1998C46.0312 24.0165 50 28.5061 50 33.9269C50 40.5561 44.6167 44.2998 39.1688 44.2998C32.8875 44.2998 27.0833 39.4977 27.0833 31.2269ZM0 31.2269C0 20.5165 8.10833 9.3123 20.8333 6.7998L22.8833 11.229C18.2687 12.9686 14.2104 19.0248 13.7583 23.1998C18.9479 24.0165 22.9167 28.5061 22.9167 33.9269C22.9167 40.5561 17.5333 44.2998 12.0854 44.2998C5.80417 44.2998 0 39.4977 0 31.2269Z" fill="#1ACDFF"/>
</svg>
