<svg width="115" height="36" viewBox="0 0 115 36" fill="none" xmlns="http://www.w3.org/2000/svg">
<path d="M53.6312 17.5525V10.4188H55.7758V26.5374H53.6312V19.3585H44.9172V26.5374H42.7726V10.4188H44.9172V17.5525H53.6312ZM68.3644 18.7038V24.9571C68.3644 25.6118 68.4321 26.131 68.545 26.5374H66.5133C66.4455 26.131 66.423 25.2732 66.423 23.9412H66.4004C66.0392 25.815 64.5492 26.8083 62.3143 26.8083C58.7474 26.8083 58.0702 24.9345 58.0702 23.4446C58.0702 21.9772 58.8377 20.9387 60.0116 20.4872C60.6212 20.2615 61.1855 20.1035 61.7499 19.9906C62.3143 19.8777 62.9012 19.7874 63.5333 19.7197C64.188 19.652 64.6169 19.5842 64.8201 19.5165C66.1521 19.1327 66.3327 18.8393 66.3327 17.9588C66.3327 16.8752 65.3394 16.2657 63.6011 16.2657C62.4272 16.2657 61.637 16.6043 61.2984 17.1687C61.0049 17.7105 60.9824 17.8685 60.9146 18.2975H58.8829C58.9732 17.5525 59.1086 17.0107 59.3118 16.6269C60.0116 15.2724 61.4339 14.5952 63.5559 14.5952C65.249 14.5952 66.5358 15.0918 67.1679 15.6562C67.5066 15.9497 67.7549 16.2883 67.9355 16.7172C68.3193 17.5299 68.3644 18.0491 68.3644 18.7038ZM66.3327 21.1193V19.2456C66.1295 20.2615 65.249 20.6453 63.1044 21.0742C61.0275 21.458 60.1697 21.9546 60.1697 23.3994C60.1697 24.483 61.0727 25.228 62.54 25.228C65.0459 25.228 66.3327 24.0767 66.3327 21.1193ZM76.6503 14.5952C79.6077 14.5952 81.0976 16.2431 81.0976 18.8618V26.5374H79.0659V19.065C79.0659 17.0107 78.0951 16.2883 76.3794 16.2883C74.0993 16.2883 72.9254 17.4396 72.9254 20.3518V26.5374H70.8937V14.8661H72.8126V17.3945H72.8577C73.3995 15.5207 74.8443 14.5952 76.6503 14.5952ZM93.2322 18.7038V24.9571C93.2322 25.6118 93.2999 26.131 93.4128 26.5374H91.3811C91.3133 26.131 91.2908 25.2732 91.2908 23.9412H91.2682C90.907 25.815 89.417 26.8083 87.1821 26.8083C83.6153 26.8083 82.938 24.9345 82.938 23.4446C82.938 21.9772 83.7056 20.9387 84.8795 20.4872C85.489 20.2615 86.0534 20.1035 86.6177 19.9906C87.1821 19.8777 87.7691 19.7874 88.4012 19.7197C89.0558 19.652 89.4848 19.5842 89.6879 19.5165C91.0199 19.1327 91.2005 18.8393 91.2005 17.9588C91.2005 16.8752 90.2072 16.2657 88.4689 16.2657C87.295 16.2657 86.5049 16.6043 86.1662 17.1687C85.8728 17.7105 85.8502 17.8685 85.7825 18.2975H83.7507C83.841 17.5525 83.9765 17.0107 84.1796 16.6269C84.8795 15.2724 86.3017 14.5952 88.4237 14.5952C90.1169 14.5952 91.4036 15.0918 92.0357 15.6562C92.3744 15.9497 92.6227 16.2883 92.8033 16.7172C93.1871 17.5299 93.2322 18.0491 93.2322 18.7038ZM91.2005 21.1193V19.2456C90.9973 20.2615 90.1169 20.6453 87.9722 21.0742C85.8953 21.458 85.0375 21.9546 85.0375 23.3994C85.0375 24.483 85.9405 25.228 87.4079 25.228C89.9137 25.228 91.2005 24.0767 91.2005 21.1193ZM102.376 14.8209V16.7398C99.5541 16.2883 97.7933 17.9363 97.7933 21.3451V26.5374H95.7615V14.8661H97.6804V17.7782H97.7255C98.3802 15.4304 100.186 14.4597 102.376 14.8209ZM103.328 23.1059H105.292C105.405 24.483 106.421 25.1603 108.295 25.1603C109.108 25.1603 109.807 25.0248 110.417 24.7539C111.026 24.483 111.343 24.0315 111.343 23.3768C111.343 22.7673 111.004 22.3158 110.643 22.0449C110.485 21.9095 110.214 21.774 109.853 21.6611C109.491 21.5483 109.198 21.458 108.95 21.4128C108.724 21.3451 108.385 21.2774 107.911 21.1871C106.85 20.9839 106.444 20.8936 105.563 20.555C104.389 20.0583 103.802 19.3811 103.712 17.9137C103.712 16.8301 104.141 16.0174 105.022 15.453C105.902 14.8886 106.918 14.5952 108.069 14.5952C109.537 14.5952 110.643 14.8435 111.41 15.3176C112.2 15.7916 112.674 16.6946 112.855 18.0491H110.981C110.643 16.6043 109.717 16.2431 108.205 16.2431C106.873 16.2431 105.744 16.7172 105.744 17.8008C105.744 18.5458 106.218 18.9521 107.008 19.223L107.753 19.4488L108.656 19.6294C109.062 19.6971 109.356 19.7648 109.559 19.81C110.665 20.0583 111.365 20.3066 112.155 20.7807C112.968 21.2548 113.374 22.0675 113.374 23.1285C113.374 24.0089 113.103 24.7314 112.539 25.3183C111.455 26.4696 109.943 26.8083 108.205 26.8083C106.85 26.8083 105.721 26.5374 104.818 25.973C103.915 25.4086 103.419 24.4379 103.328 23.1059Z" fill="#0B1530"/>
<path d="M53.6312 17.5525V17.71H53.7887V17.5525H53.6312ZM53.6312 10.4188V10.2613H53.4737V10.4188H53.6312ZM55.7758 10.4188H55.9333V10.2613H55.7758V10.4188ZM55.7758 26.5374V26.6949H55.9333V26.5374H55.7758ZM53.6312 26.5374H53.4737V26.6949H53.6312V26.5374ZM53.6312 19.3585H53.7887V19.201H53.6312V19.3585ZM44.9172 19.3585V19.201H44.7597V19.3585H44.9172ZM44.9172 26.5374V26.6949H45.0747V26.5374H44.9172ZM42.7726 26.5374H42.6151V26.6949H42.7726V26.5374ZM42.7726 10.4188V10.2613H42.6151V10.4188H42.7726ZM44.9172 10.4188H45.0747V10.2613H44.9172V10.4188ZM44.9172 17.5525H44.7597V17.71H44.9172V17.5525ZM53.7887 17.5525V10.4188H53.4737V17.5525H53.7887ZM53.6312 10.5763H55.7758V10.2613H53.6312V10.5763ZM55.6183 10.4188V26.5374H55.9333V10.4188H55.6183ZM55.7758 26.3799H53.6312V26.6949H55.7758V26.3799ZM53.7887 26.5374V19.3585H53.4737V26.5374H53.7887ZM53.6312 19.201H44.9172V19.516H53.6312V19.201ZM44.7597 19.3585V26.5374H45.0747V19.3585H44.7597ZM44.9172 26.3799H42.7726V26.6949H44.9172V26.3799ZM42.9301 26.5374V10.4188H42.6151V26.5374H42.9301ZM42.7726 10.5763H44.9172V10.2613H42.7726V10.5763ZM44.7597 10.4188V17.5525H45.0747V10.4188H44.7597ZM44.9172 17.71H53.6312V17.395H44.9172V17.71ZM68.545 26.5374V26.6949H68.7522L68.6968 26.4952L68.545 26.5374ZM66.5133 26.5374L66.3579 26.5632L66.3798 26.6949H66.5133V26.5374ZM66.423 23.9412H66.5805V23.7837H66.423V23.9412ZM66.4004 23.9412V23.7837H66.2703L66.2457 23.9114L66.4004 23.9412ZM60.0116 20.4872L59.9569 20.3395L59.9551 20.3402L60.0116 20.4872ZM61.7499 19.9906L61.7808 20.145L61.7499 19.9906ZM63.5333 19.7197L63.5171 19.563L63.5166 19.5631L63.5333 19.7197ZM64.8201 19.5165L64.7765 19.365L64.7703 19.3671L64.8201 19.5165ZM61.2984 17.1687L61.1632 17.0876L61.1599 17.0937L61.2984 17.1687ZM60.9146 18.2975V18.455H61.0492L61.0702 18.322L60.9146 18.2975ZM58.8829 18.2975L58.7265 18.2785L58.7051 18.455H58.8829V18.2975ZM59.3118 16.6269L59.451 16.7006L59.4517 16.6992L59.3118 16.6269ZM67.1679 15.6562L67.063 15.7737L67.0648 15.7752L67.1679 15.6562ZM67.9355 16.7172L67.7902 16.7784L67.7931 16.7845L67.9355 16.7172ZM66.3327 19.2456H66.4902L66.1782 19.2147L66.3327 19.2456ZM63.1044 21.0742L63.133 21.2291L63.1353 21.2286L63.1044 21.0742ZM68.2069 18.7038V24.9571H68.5219V18.7038H68.2069ZM68.2069 24.9571C68.2069 25.622 68.2756 26.156 68.3933 26.5795L68.6968 26.4952C68.5886 26.106 68.5219 25.6015 68.5219 24.9571H68.2069ZM68.545 26.3799H66.5133V26.6949H68.545V26.3799ZM66.6686 26.5115C66.6035 26.1209 66.5805 25.2782 66.5805 23.9412H66.2655C66.2655 25.2681 66.2875 26.1411 66.3579 26.5632L66.6686 26.5115ZM66.423 23.7837H66.4004V24.0987H66.423V23.7837ZM66.2457 23.9114C66.0723 24.811 65.6309 25.4906 64.9703 25.9479C64.3068 26.4072 63.4097 26.6508 62.3143 26.6508V26.9658C63.4538 26.9658 64.4191 26.7126 65.1496 26.2069C65.8831 25.6991 66.3673 24.9451 66.555 23.971L66.2457 23.9114ZM62.3143 26.6508C60.5571 26.6508 59.5448 26.1896 58.9694 25.5773C58.3925 24.9633 58.2277 24.1685 58.2277 23.4446H57.9127C57.9127 24.2106 58.0865 25.0977 58.7399 25.793C59.3949 26.49 60.5046 26.9658 62.3143 26.9658V26.6508ZM58.2277 23.4446C58.2277 22.0408 58.9565 21.0618 60.0682 20.6342L59.9551 20.3402C58.7189 20.8157 57.9127 21.9136 57.9127 23.4446H58.2277ZM60.0663 20.6349C60.6683 20.412 61.2247 20.2563 61.7808 20.145L61.719 19.8362C61.1464 19.9507 60.574 20.111 59.9569 20.3395L60.0663 20.6349ZM61.7808 20.145C62.3403 20.0331 62.9226 19.9435 63.5501 19.8763L63.5166 19.5631C62.8799 19.6313 62.2882 19.7223 61.719 19.8362L61.7808 20.145ZM63.5496 19.8764C64.201 19.809 64.6475 19.7401 64.8699 19.6659L64.7703 19.3671C64.5864 19.4284 64.1751 19.495 63.5171 19.563L63.5496 19.8764ZM64.8637 19.6679C65.5275 19.4766 65.9471 19.2981 66.1921 19.0302C66.4472 18.7513 66.4902 18.4028 66.4902 17.9588H66.1752C66.1752 18.3953 66.1278 18.6337 65.9596 18.8176C65.7814 19.0125 65.4447 19.1726 64.7765 19.3652L64.8637 19.6679ZM66.4902 17.9588C66.4902 17.3595 66.211 16.8869 65.7015 16.572C65.201 16.2625 64.4848 16.1082 63.6011 16.1082V16.4232C64.4556 16.4232 65.1053 16.5737 65.5359 16.8399C65.9577 17.1006 66.1752 17.4746 66.1752 17.9588H66.4902ZM63.6011 16.1082C62.4077 16.1082 61.545 16.4516 61.1634 17.0877L61.4335 17.2497C61.7291 16.7571 62.4466 16.4232 63.6011 16.4232V16.1082ZM61.1599 17.0937C61.0114 17.368 60.9269 17.5531 60.8717 17.728C60.8167 17.9022 60.7925 18.0611 60.7591 18.2729L61.0702 18.322C61.1045 18.1049 61.1255 17.9704 61.1721 17.8228C61.2184 17.676 61.292 17.5112 61.4369 17.2437L61.1599 17.0937ZM60.9146 18.14H58.8829V18.455H60.9146V18.14ZM59.0392 18.3164C59.1288 17.5775 59.2615 17.0586 59.451 16.7006L59.1726 16.5532C58.9558 16.9627 58.8176 17.5275 58.7265 18.2785L59.0392 18.3164ZM59.4517 16.6992C60.1141 15.4172 61.4659 14.7527 63.5559 14.7527V14.4377C61.4018 14.4377 59.9092 15.1276 59.1719 16.5546L59.4517 16.6992ZM63.5559 14.7527C65.224 14.7527 66.4686 15.2429 67.063 15.7737L67.2728 15.5387C66.6031 14.9407 65.2741 14.4377 63.5559 14.4377V14.7527ZM67.0648 15.7752C67.3852 16.0529 67.6191 16.3717 67.7903 16.7783L68.0806 16.6561C67.8906 16.2049 67.6279 15.8464 67.2711 15.5372L67.0648 15.7752ZM67.7931 16.7845C68.164 17.5701 68.2069 18.0646 68.2069 18.7038H68.5219C68.5219 18.0337 68.4745 17.4897 68.0779 16.65L67.7931 16.7845ZM66.4902 21.1193V19.2456H66.1752V21.1193H66.4902ZM66.1782 19.2147C66.0869 19.6711 65.8494 19.9842 65.3719 20.2413C64.8814 20.5054 64.1467 20.7051 63.0735 20.9198L63.1353 21.2286C64.2068 21.0143 64.9846 20.8077 65.5213 20.5187C66.0709 20.2227 66.3752 19.836 66.4871 19.2765L66.1782 19.2147ZM63.0758 20.9193C62.037 21.1113 61.2703 21.336 60.7642 21.7126C60.2412 22.1017 60.0122 22.6395 60.0122 23.3994H60.3272C60.3272 22.7145 60.527 22.2817 60.9522 21.9653C61.3942 21.6364 62.0949 21.4209 63.133 21.2291L63.0758 20.9193ZM60.0122 23.3994C60.0122 23.9892 60.2598 24.4921 60.7072 24.8439C61.1513 25.193 61.7813 25.3855 62.54 25.3855V25.0705C61.8314 25.0705 61.2763 24.8905 60.9019 24.5962C60.531 24.3046 60.3272 23.8932 60.3272 23.3994H60.0122ZM62.54 25.3855C63.814 25.3855 64.8124 25.093 65.4893 24.3921C66.1649 23.6925 66.4902 22.6168 66.4902 21.1193H66.1752C66.1752 22.5792 65.857 23.5579 65.2627 24.1733C64.6698 24.7873 63.7719 25.0705 62.54 25.0705V25.3855ZM81.0976 26.5374V26.6949H81.2551V26.5374H81.0976ZM79.0659 26.5374H78.9084V26.6949H79.0659V26.5374ZM72.9254 26.5374V26.6949H73.0829V26.5374H72.9254ZM70.8937 26.5374H70.7362V26.6949H70.8937V26.5374ZM70.8937 14.8661V14.7086H70.7362V14.8661H70.8937ZM72.8126 14.8661H72.9701V14.7086H72.8126V14.8661ZM72.8126 17.3945H72.6551V17.552H72.8126V17.3945ZM72.8577 17.3945V17.552H72.9761L73.009 17.4382L72.8577 17.3945ZM76.6503 14.7527C78.1003 14.7527 79.1672 15.1562 79.8718 15.8581C80.5764 16.56 80.9401 17.5818 80.9401 18.8618H81.2551C81.2551 17.5232 80.8738 16.4116 80.0941 15.6349C79.3144 14.8581 78.1577 14.4377 76.6503 14.4377V14.7527ZM80.9401 18.8618V26.5374H81.2551V18.8618H80.9401ZM81.0976 26.3799H79.0659V26.6949H81.0976V26.3799ZM79.2234 26.5374V19.065H78.9084V26.5374H79.2234ZM79.2234 19.065C79.2234 18.0161 78.9757 17.2716 78.4749 16.7925C77.9754 16.3146 77.2553 16.1308 76.3794 16.1308V16.4458C77.2193 16.4458 77.8423 16.6232 78.2571 17.0201C78.6707 17.4157 78.9084 18.0596 78.9084 19.065H79.2234ZM76.3794 16.1308C75.2145 16.1308 74.2991 16.4253 73.6796 17.1234C73.0639 17.8172 72.7679 18.8793 72.7679 20.3518H73.0829C73.0829 18.9121 73.3739 17.9424 73.9152 17.3325C74.4526 16.7269 75.2643 16.4458 76.3794 16.4458V16.1308ZM72.7679 20.3518V26.5374H73.0829V20.3518H72.7679ZM72.9254 26.3799H70.8937V26.6949H72.9254V26.3799ZM71.0512 26.5374V14.8661H70.7362V26.5374H71.0512ZM70.8937 15.0236H72.8126V14.7086H70.8937V15.0236ZM72.6551 14.8661V17.3945H72.9701V14.8661H72.6551ZM72.8126 17.552H72.8577V17.237H72.8126V17.552ZM73.009 17.4382C73.2711 16.5319 73.7485 15.8634 74.3712 15.4205C74.9949 14.977 75.7742 14.7527 76.6503 14.7527V14.4377C75.7204 14.4377 74.8744 14.6761 74.1887 15.1638C73.5021 15.6521 72.9861 16.3833 72.7064 17.3507L73.009 17.4382ZM93.4128 26.5374V26.6949H93.62L93.5646 26.4952L93.4128 26.5374ZM91.3811 26.5374L91.2257 26.5632L91.2476 26.6949H91.3811V26.5374ZM91.2908 23.9412H91.4483V23.7837H91.2908V23.9412ZM91.2682 23.9412V23.7837H91.1382L91.1135 23.9114L91.2682 23.9412ZM84.8795 20.4872L84.8247 20.3395L84.8229 20.3402L84.8795 20.4872ZM86.6177 19.9906L86.6486 20.145L86.6177 19.9906ZM88.4012 19.7197L88.385 19.563L88.3844 19.5631L88.4012 19.7197ZM89.6879 19.5165L89.6443 19.365L89.6381 19.3671L89.6879 19.5165ZM86.1662 17.1687L86.031 17.0876L86.0277 17.0937L86.1662 17.1687ZM85.7825 18.2975V18.455H85.917L85.938 18.322L85.7825 18.2975ZM83.7507 18.2975L83.5943 18.2785L83.573 18.455H83.7507V18.2975ZM84.1796 16.6269L84.3188 16.7006L84.3196 16.6992L84.1796 16.6269ZM92.0357 15.6562L91.9308 15.7737L91.9326 15.7752L92.0357 15.6562ZM92.8033 16.7172L92.658 16.7784L92.6609 16.7845L92.8033 16.7172ZM91.2005 19.2456H91.358L91.046 19.2147L91.2005 19.2456ZM87.9722 21.0742L88.0009 21.2291L88.0031 21.2286L87.9722 21.0742ZM93.0747 18.7038V24.9571H93.3897V18.7038H93.0747ZM93.0747 24.9571C93.0747 25.622 93.1434 26.156 93.2611 26.5795L93.5646 26.4952C93.4565 26.106 93.3897 25.6015 93.3897 24.9571H93.0747ZM93.4128 26.3799H91.3811V26.6949H93.4128V26.3799ZM91.5364 26.5115C91.4713 26.1209 91.4483 25.2782 91.4483 23.9412H91.1333C91.1333 25.2681 91.1553 26.1411 91.2257 26.5632L91.5364 26.5115ZM91.2908 23.7837H91.2682V24.0987H91.2908V23.7837ZM91.1135 23.9114C90.9401 24.811 90.4987 25.4906 89.8381 25.9479C89.1746 26.4072 88.2775 26.6508 87.1821 26.6508V26.9658C88.3216 26.9658 89.2869 26.7126 90.0174 26.2069C90.7509 25.6991 91.2351 24.9451 91.4228 23.971L91.1135 23.9114ZM87.1821 26.6508C85.4249 26.6508 84.4126 26.1896 83.8373 25.5773C83.2603 24.9633 83.0955 24.1685 83.0955 23.4446H82.7805C82.7805 24.2106 82.9544 25.0977 83.6077 25.793C84.2627 26.49 85.3724 26.9658 87.1821 26.9658V26.6508ZM83.0955 23.4446C83.0955 22.0408 83.8243 21.0618 84.936 20.6342L84.8229 20.3402C83.5868 20.8157 82.7805 21.9136 82.7805 23.4446H83.0955ZM84.9342 20.6349C85.5361 20.412 86.0925 20.2563 86.6486 20.145L86.5868 19.8362C86.0142 19.9507 85.4418 20.111 84.8248 20.3395L84.9342 20.6349ZM86.6486 20.145C87.2082 20.0331 87.7904 19.9435 88.4179 19.8763L88.3844 19.5631C87.7477 19.6313 87.1561 19.7223 86.5868 19.8362L86.6486 20.145ZM88.4174 19.8764C89.0688 19.809 89.5153 19.7401 89.7377 19.6659L89.6381 19.3671C89.4542 19.4284 89.0429 19.495 88.385 19.563L88.4174 19.8764ZM89.7315 19.6679C90.3953 19.4766 90.8149 19.2981 91.0599 19.0302C91.315 18.7513 91.358 18.4028 91.358 17.9588H91.043C91.043 18.3953 90.9956 18.6337 90.8275 18.8176C90.6492 19.0125 90.3125 19.1726 89.6443 19.3652L89.7315 19.6679ZM91.358 17.9588C91.358 17.3595 91.0788 16.8869 90.5693 16.572C90.0688 16.2625 89.3526 16.1082 88.4689 16.1082V16.4232C89.3235 16.4232 89.9731 16.5737 90.4037 16.8399C90.8255 17.1006 91.043 17.4746 91.043 17.9588H91.358ZM88.4689 16.1082C87.2756 16.1082 86.4128 16.4516 86.0312 17.0877L86.3013 17.2497C86.5969 16.7571 87.3144 16.4232 88.4689 16.4232V16.1082ZM86.0277 17.0937C85.8792 17.368 85.7947 17.5531 85.7395 17.728C85.6845 17.9022 85.6603 18.0611 85.6269 18.2729L85.938 18.322C85.9723 18.1049 85.9933 17.9704 86.0399 17.8228C86.0862 17.676 86.1598 17.5112 86.3047 17.2437L86.0277 17.0937ZM85.7825 18.14H83.7507V18.455H85.7825V18.14ZM83.9071 18.3164C83.9966 17.5775 84.1293 17.0586 84.3188 16.7006L84.0404 16.5532C83.8236 16.9627 83.6854 17.5275 83.5943 18.2785L83.9071 18.3164ZM84.3196 16.6992C84.9819 15.4172 86.3337 14.7527 88.4237 14.7527V14.4377C86.2696 14.4377 84.777 15.1276 84.0397 16.5546L84.3196 16.6992ZM88.4237 14.7527C90.0918 14.7527 91.3364 15.2429 91.9308 15.7737L92.1406 15.5387C91.4709 14.9407 90.1419 14.4377 88.4237 14.4377V14.7527ZM91.9326 15.7752C92.253 16.0529 92.4869 16.3717 92.6581 16.7783L92.9485 16.6561C92.7585 16.2049 92.4957 15.8464 92.1389 15.5372L91.9326 15.7752ZM92.6609 16.7845C93.0319 17.5701 93.0747 18.0646 93.0747 18.7038H93.3897C93.3897 18.0337 93.3423 17.4897 92.9457 16.65L92.6609 16.7845ZM91.358 21.1193V19.2456H91.043V21.1193H91.358ZM91.046 19.2147C90.9547 19.6711 90.7172 19.9842 90.2397 20.2413C89.7492 20.5054 89.0145 20.7051 87.9413 20.9198L88.0031 21.2286C89.0746 21.0143 89.8524 20.8077 90.3891 20.5187C90.9387 20.2227 91.243 19.836 91.3549 19.2765L91.046 19.2147ZM87.9436 20.9193C86.9048 21.1113 86.1382 21.336 85.632 21.7126C85.109 22.1017 84.88 22.6395 84.88 23.3994H85.195C85.195 22.7145 85.3948 22.2817 85.82 21.9653C86.262 21.6364 86.9628 21.4209 88.0009 21.2291L87.9436 20.9193ZM84.88 23.3994C84.88 23.9892 85.1277 24.4921 85.5751 24.8439C86.0191 25.193 86.6491 25.3855 87.4079 25.3855V25.0705C86.6992 25.0705 86.1441 24.8905 85.7697 24.5962C85.3988 24.3046 85.195 23.8932 85.195 23.3994H84.88ZM87.4079 25.3855C88.6818 25.3855 89.6803 25.093 90.3571 24.3921C91.0327 23.6925 91.358 22.6168 91.358 21.1193H91.043C91.043 22.5792 90.7248 23.5579 90.1306 24.1733C89.5376 24.7873 88.6397 25.0705 87.4079 25.0705V25.3855ZM102.376 14.8209H102.533V14.6873L102.402 14.6655L102.376 14.8209ZM102.376 16.7398L102.351 16.8953L102.533 16.9245V16.7398H102.376ZM97.7933 26.5374V26.6949H97.9508V26.5374H97.7933ZM95.7615 26.5374H95.604V26.6949H95.7615V26.5374ZM95.7615 14.8661V14.7086H95.604V14.8661H95.7615ZM97.6804 14.8661H97.8379V14.7086H97.6804V14.8661ZM97.6804 17.7782H97.5229V17.9357H97.6804V17.7782ZM97.7255 17.7782V17.9357H97.8451L97.8772 17.8205L97.7255 17.7782ZM102.218 14.8209V16.7398H102.533V14.8209H102.218ZM102.401 16.5843C100.955 16.3529 99.7537 16.6567 98.9158 17.4827C98.0819 18.3047 97.6358 19.6169 97.6358 21.3451H97.9508C97.9508 19.6645 98.385 18.4482 99.137 17.707C99.885 16.9696 100.975 16.6752 102.351 16.8953L102.401 16.5843ZM97.6358 21.3451V26.5374H97.9508V21.3451H97.6358ZM97.7933 26.3799H95.7615V26.6949H97.7933V26.3799ZM95.919 26.5374V14.8661H95.604V26.5374H95.919ZM95.7615 15.0236H97.6804V14.7086H95.7615V15.0236ZM97.5229 14.8661V17.7782H97.8379V14.8661H97.5229ZM97.6804 17.9357H97.7255V17.6207H97.6804V17.9357ZM97.8772 17.8205C98.1957 16.6784 98.7896 15.8851 99.557 15.4183C100.325 14.9507 101.285 14.8005 102.35 14.9763L102.402 14.6655C101.278 14.4801 100.239 14.6347 99.3932 15.1491C98.5465 15.6643 97.91 16.5303 97.5738 17.7359L97.8772 17.8205ZM103.328 23.1059V22.9484H103.16L103.171 23.1166L103.328 23.1059ZM105.292 23.1059L105.449 23.0931L105.438 22.9484H105.292V23.1059ZM110.417 24.7539L110.481 24.8979L110.417 24.7539ZM110.643 22.0449L110.54 22.1648L110.548 22.1709L110.643 22.0449ZM109.853 21.6611L109.806 21.8115L109.853 21.6611ZM108.95 21.4128L108.904 21.5637L108.913 21.5662L108.921 21.5678L108.95 21.4128ZM107.911 21.1871L107.881 21.3418L107.882 21.3418L107.911 21.1871ZM105.563 20.555L105.502 20.7001L105.507 20.702L105.563 20.555ZM103.712 17.9137H103.554L103.555 17.9234L103.712 17.9137ZM111.41 15.3176L111.327 15.4516L111.329 15.4526L111.41 15.3176ZM112.855 18.0491V18.2066H113.035L113.011 18.0283L112.855 18.0491ZM110.981 18.0491L110.828 18.0851L110.856 18.2066H110.981V18.0491ZM107.008 19.223L106.957 19.3721L106.962 19.3738L107.008 19.223ZM107.753 19.4488L107.707 19.5995L107.715 19.6017L107.722 19.6032L107.753 19.4488ZM108.656 19.6294L108.625 19.7839L108.63 19.7847L108.656 19.6294ZM109.559 19.81L109.594 19.6563L109.593 19.6562L109.559 19.81ZM112.155 20.7807L112.074 20.9158L112.076 20.9168L112.155 20.7807ZM112.539 25.3183L112.425 25.2091L112.424 25.2104L112.539 25.3183ZM104.818 25.973L104.735 26.1065L104.818 25.973ZM103.328 23.2634H105.292V22.9484H103.328V23.2634ZM105.135 23.1188C105.195 23.8481 105.498 24.408 106.045 24.7798C106.584 25.1463 107.343 25.3178 108.295 25.3178V25.0028C107.373 25.0028 106.687 24.8356 106.222 24.5193C105.764 24.2081 105.502 23.7409 105.449 23.0931L105.135 23.1188ZM108.295 25.3178C109.125 25.3178 109.848 25.1793 110.481 24.8979L110.353 24.61C109.767 24.8703 109.09 25.0028 108.295 25.0028V25.3178ZM110.481 24.8979C110.806 24.7533 111.063 24.5558 111.239 24.2978C111.414 24.0391 111.5 23.7305 111.5 23.3768H111.185C111.185 23.6779 111.113 23.9224 110.978 24.1208C110.843 24.3199 110.637 24.4837 110.353 24.61L110.481 24.8979ZM111.5 23.3768C111.5 22.7038 111.125 22.21 110.737 21.9189L110.548 22.1709C110.882 22.4216 111.185 22.8309 111.185 23.3768H111.5ZM110.745 21.9253C110.564 21.7698 110.27 21.6264 109.9 21.5108L109.806 21.8115C110.158 21.9216 110.406 22.0492 110.54 22.1645L110.745 21.9253ZM109.9 21.5108C109.541 21.3988 109.238 21.3051 108.978 21.2579L108.921 21.5678C109.158 21.6108 109.442 21.6978 109.806 21.8115L109.9 21.5108ZM108.995 21.262C108.76 21.1914 108.412 21.1222 107.941 21.0324L107.882 21.3418C108.358 21.4326 108.688 21.4988 108.904 21.5637L108.995 21.262ZM107.941 21.0324C106.884 20.83 106.488 20.7418 105.62 20.408L105.507 20.702C106.4 21.0454 106.816 21.1378 107.881 21.3418L107.941 21.0324ZM105.625 20.4099C105.052 20.1676 104.64 19.8885 104.358 19.5051C104.077 19.1223 103.913 18.6186 103.869 17.904L103.555 17.9234C103.601 18.6762 103.776 19.2448 104.104 19.6916C104.432 20.1379 104.901 20.4457 105.502 20.7L105.625 20.4099ZM103.87 17.9137C103.87 16.8808 104.274 16.1195 105.106 15.5856L104.937 15.3204C104.008 15.9153 103.555 16.7794 103.555 17.9137H103.87ZM105.106 15.5856C105.96 15.0385 106.946 14.7527 108.069 14.7527V14.4377C106.89 14.4377 105.844 14.7387 104.937 15.3204L105.106 15.5856ZM108.069 14.7527C109.522 14.7527 110.595 14.9992 111.327 15.4516L111.493 15.1836C110.69 14.6878 109.551 14.4377 108.069 14.4377V14.7527ZM111.329 15.4526C112.061 15.8917 112.521 16.7387 112.699 18.07L113.011 18.0283C112.827 16.6506 112.34 15.6916 111.491 15.1825L111.329 15.4526ZM112.855 17.8916H110.981V18.2066H112.855V17.8916ZM111.135 18.0132C110.958 17.26 110.622 16.7663 110.113 16.4684C109.613 16.1758 108.968 16.0856 108.205 16.0856V16.4006C108.953 16.4006 109.528 16.4911 109.954 16.7403C110.37 16.9842 110.666 17.3935 110.828 18.0851L111.135 18.0132ZM108.205 16.0856C107.524 16.0856 106.878 16.2063 106.397 16.4786C105.909 16.755 105.586 17.192 105.586 17.8008H105.901C105.901 17.326 106.143 16.9841 106.552 16.7527C106.969 16.5171 107.554 16.4006 108.205 16.4006V16.0856ZM105.586 17.8008C105.586 18.211 105.719 18.5385 105.966 18.7982C106.208 19.053 106.551 19.2328 106.957 19.372L107.059 19.0741C106.675 18.9424 106.386 18.7836 106.194 18.5812C106.006 18.3838 105.901 18.1356 105.901 17.8008H105.586ZM106.962 19.3738L107.707 19.5995L107.799 19.2981L107.054 19.0723L106.962 19.3738ZM107.722 19.6032L108.625 19.7838L108.687 19.475L107.784 19.2944L107.722 19.6032ZM108.63 19.7847C109.032 19.8517 109.321 19.9185 109.525 19.9637L109.593 19.6562C109.391 19.6112 109.093 19.5426 108.682 19.474L108.63 19.7847ZM109.525 19.9637C110.62 20.2096 111.303 20.453 112.074 20.9158L112.236 20.6457C111.427 20.1603 110.71 19.907 109.594 19.6563L109.525 19.9637ZM112.076 20.9168C112.831 21.3572 113.217 22.1118 113.217 23.1285H113.532C113.532 22.0232 113.105 21.1524 112.235 20.6447L112.076 20.9168ZM113.217 23.1285C113.217 23.9729 112.959 24.6547 112.425 25.2091L112.653 25.4275C113.248 24.808 113.532 24.045 113.532 23.1285H113.217ZM112.424 25.2104C111.385 26.3148 109.926 26.6508 108.205 26.6508V26.9658C109.959 26.9658 111.526 26.6245 112.654 25.4262L112.424 25.2104ZM108.205 26.6508C106.87 26.6508 105.773 26.3839 104.902 25.8394L104.735 26.1065C105.67 26.6908 106.83 26.9658 108.205 26.9658V26.6508ZM104.902 25.8394C104.053 25.3091 103.573 24.3923 103.486 23.0953L103.171 23.1166C103.264 24.4834 103.777 25.5081 104.735 26.1065L104.902 25.8394Z" fill="#0B1530"/>
<path fill-rule="evenodd" clip-rule="evenodd" d="M29.9769 30.1072C30.0609 30.1649 30.1502 30.1492 30.2184 30.1072C30.2604 30.0389 30.2709 29.9497 30.2184 29.8657L23.8134 19.4549C23.4302 18.8196 23.4459 18.0216 23.8554 17.4074L35.2217 0.523329C35.3634 0.318579 35.1167 0.0665787 34.9067 0.208329L18.0227 11.5746C17.4084 11.9894 16.6052 12.0051 15.9752 11.6166L5.56444 5.2116C5.48044 5.15385 5.39119 5.1696 5.32294 5.2116C5.28094 5.27985 5.27044 5.3691 5.32294 5.4531L11.7279 15.8639C12.1112 16.4991 12.0954 17.2971 11.6859 17.9114L0.319692 34.7954C0.177942 35.0002 0.424691 35.2522 0.634691 35.1104L17.5187 23.7442C18.1329 23.3294 18.9362 23.3137 19.5662 23.7022L29.9769 30.1072ZM32.4095 11.9676L33.9514 11.2124L32.0981 10.0521L30.2449 8.88659L30.0296 11.0654L29.8144 13.2441L31.2502 12.5371C33.0087 17.1681 32.3003 22.515 29.1165 26.5583L29.8357 27.729C33.5819 23.2514 34.4429 17.1755 32.4095 11.9676ZM10.101 29.8605C15.1882 33.0788 21.8557 32.7953 26.6647 29.0048L27.8407 29.7293C22.4175 34.2653 14.658 34.5698 8.93021 30.648L10.101 29.8605ZM5.70671 7.59519L6.4312 8.77119C3.27521 12.7816 2.5539 18.0791 4.26291 22.6748L5.73776 21.9486L5.52251 24.1274L5.30726 26.3062L3.45401 25.1459L1.60076 23.9804L3.08617 23.2528C1.11059 18.0664 1.98558 12.0407 5.70671 7.59519ZM8.87771 6.31944L7.7017 5.59494C13.125 1.05892 20.8792 0.754419 26.6122 4.67618L25.4467 5.46369C20.3595 2.24542 13.692 2.53417 8.87771 6.31944Z" fill="url(#paint0_linear_19_141)"/>
<defs>
<linearGradient id="paint0_linear_19_141" x1="17.7707" y1="0.166992" x2="17.7707" y2="35.1518" gradientUnits="userSpaceOnUse">
<stop stop-color="#5482FF" stop-opacity="0.49"/>
<stop offset="0.489583" stop-color="#5482FF"/>
<stop offset="1" stop-color="#5482FF" stop-opacity="0.51"/>
</linearGradient>
</defs>
</svg>
